<svg width="800" height="600" viewBox="-3.95 -2.55 7.900000000000001 5.1000000000000005" xmlns="http://www.w3.org/2000/svg"><rect x="-3.95" y="-2.55" width="7.900000000000001" height="5.1000000000000005" fill="#f8f9fa" stroke="#dee2e6" stroke-width="0.02"/><text x="4.440892098500626e-16" y="-2.15" text-anchor="middle" font-family="Arial, sans-serif" font-size="0.15" font-weight="bold" fill="#212529">D_SOD-123F - Alignment Analysis (Footprinter vs KiCad)</text><g id="footprint-a" opacity="0.85"><path d="M-1.825,-0.55 L-0.9749999999999999,-0.55 A0.12500000000000006,0.12500000000000006 0 0,1 -0.8499999999999999,-0.425 L-0.8499999999999999,0.4250000000000001 A0.125,0.125 0 0,1 -0.9749999999999999,0.55 L-1.825,0.55 A0.12499999999999994,0.12499999999999994 0 0,1 -1.95,0.4250000000000001 L-1.95,-0.425 A0.125,0.125 0 0,1 -1.8250000000000002,-0.55 z" fill="#dc3545" stroke="#dc3545" stroke-width="0.02" fill-opacity="0.6" fill-rule="evenodd"/><path d="M0.9749999999999999,-0.55 L1.825,-0.55 A0.12500000000000006,0.12500000000000006 0 0,1 1.95,-0.425 L1.95,0.4250000000000001 A0.125,0.125 0 0,1 1.8250000000000004,0.55 L0.9749999999999999,0.55 A0.12499999999999994,0.12499999999999994 0 0,1 0.8499999999999999,0.4250000000000001 L0.8499999999999999,-0.425 A0.125,0.125 0 0,1 0.9749999999999996,-0.55 z" fill="#dc3545" stroke="#dc3545" stroke-width="0.02" fill-opacity="0.6" fill-rule="evenodd"/></g><g id="footprint-b" opacity="0.85"><path d="M-1.8249999999849997,-0.55 L-0.975000000015001,-0.55 A0.12500000001499978,0.12500000001499978 0 0,1 -0.8500000000000012,-0.42499999998500004 L-0.8500000000000005,0.42499999998500004 A0.12500000001499956,0.12500000001499956 0 0,1 -0.975000000015001,0.5499999999999996 L-1.8249999999849997,0.55 A0.12500000001499978,0.12500000001499978 0 0,1 -1.9499999999999995,0.4249999999850001 L-1.9500000000000002,-0.42499999998500004 A0.12500000001499956,0.12500000001499956 0 0,1 -1.8249999999849997,-0.5499999999999998 z" fill="#007bff" stroke="#007bff" stroke-width="0.02" fill-opacity="0.6" fill-rule="evenodd"/><path d="M0.975000000015001,-0.55 L1.8249999999850015,-0.55 A0.12500000001499978,0.12500000001499978 0 0,1 1.9500000000000013,-0.42499999998500004 L1.950000000000001,0.42499999998500004 A0.12500000001499956,0.12500000001499956 0 0,1 1.8249999999850015,0.5499999999999996 L0.975000000015001,0.55 A0.12500000001499978,0.12500000001499978 0 0,1 0.8500000000000012,0.42499999998500004 L0.8500000000000005,-0.42499999998500004 A0.12500000001499956,0.12500000001499956 0 0,1 0.975000000015001,-0.5499999999999997 z" fill="#007bff" stroke="#007bff" stroke-width="0.02" fill-opacity="0.6" fill-rule="evenodd"/></g><g id="alignment-guides" opacity="0.3"><line x1="4.440892098500626e-16" y1="-2.55" x2="4.440892098500626e-16" y2="2.5500000000000007" stroke="#6c757d" stroke-width="0.02" stroke-dasharray="0.1,0.1"/><line x1="-3.95" y1="4.440892098500626e-16" x2="3.950000000000001" y2="4.440892098500626e-16" stroke="#6c757d" stroke-width="0.02" stroke-dasharray="0.1,0.1"/></g><g font-family="Arial, sans-serif" font-size="0.15"><rect x="-3.75" y="1.5850000000000006" width="7.500000000000001" height="0.765" fill="white" fill-opacity="0.9" stroke="#dee2e6" stroke-width="0.01" rx="0.05"/><rect x="-3.5500000000000003" y="1.6850000000000007" width="0.2" height="0.2" fill="#dc3545" fill-opacity="0.5" stroke="#dc3545" stroke-width="0.01"/><text x="-3.3000000000000003" y="1.7850000000000008" fill="#212529" font-weight="500" dominant-baseline="middle">sod123f</text><rect x="-0.7899999999999996" y="1.6850000000000007" width="0.2" height="0.2" fill="#007bff" fill-opacity="0.5" stroke="#007bff" stroke-width="0.01"/><text x="-0.5399999999999996" y="1.7850000000000008" fill="#212529" font-weight="500" dominant-baseline="middle">KiCad: D_SOD-123F</text><text x="4.440892098500626e-16" y="2.2500000000000004" text-anchor="middle" fill="#6c757d" font-size="0.12">Perfect alignment = complete overlap</text></g></svg>