<svg xmlns="http://www.w3.org/2000/svg" width="800" height="600"><style></style><defs><pattern id="pcb-keepout-pattern" width="20" height="20" patternUnits="userSpaceOnUse"><line x1="-20" y1="0" x2="0" y2="20" stroke="#FF6B6B" stroke-width="1"/><line x1="-15" y1="0" x2="5" y2="20" stroke="#FF6B6B" stroke-width="1"/><line x1="-10" y1="0" x2="10" y2="20" stroke="#FF6B6B" stroke-width="1"/><line x1="-5" y1="0" x2="15" y2="20" stroke="#FF6B6B" stroke-width="1"/><line x1="0" y1="0" x2="20" y2="20" stroke="#FF6B6B" stroke-width="1"/><line x1="5" y1="0" x2="25" y2="20" stroke="#FF6B6B" stroke-width="1"/><line x1="10" y1="0" x2="30" y2="20" stroke="#FF6B6B" stroke-width="1"/><line x1="15" y1="0" x2="35" y2="20" stroke="#FF6B6B" stroke-width="1"/><line x1="20" y1="0" x2="40" y2="20" stroke="#FF6B6B" stroke-width="1"/></pattern></defs><rect class="boundary" x="0" y="0" fill="#000" width="800" height="600" data-type="pcb_background" data-pcb-layer="global"/><rect class="pcb-boundary" fill="none" stroke="#fff" stroke-width="0.3" x="291.16719242902207" y="75.70977917981075" width="217.66561514195587" height="448.58044164037847" data-type="pcb_boundary" data-pcb-layer="global"/><rect class="pcb-keepout pcb-keepout-rect pcb-keepout-background" data-type="pcb_keepout" data-pcb-layer="top" data-pcb-keepout-id="" stroke="none" x="-28.391167192429023" y="-123.02839116719242" width="56.782334384858046" height="246.05678233438485" fill="rgba(255, 107, 107, 0.2)" transform="matrix(1,0,0,1,480.44164037854887,401.2618296529969)"/><rect class="pcb-keepout pcb-keepout-rect pcb-keepout-pattern" fill="url(#pcb-keepout-pattern)" data-type="pcb_keepout" data-pcb-layer="top" data-pcb-keepout-id="" stroke="none" x="-28.391167192429023" y="-123.02839116719242" width="56.782334384858046" height="246.05678233438485" transform="matrix(1,0,0,1,480.44164037854887,401.2618296529969)"/><rect class="pcb-pad" fill="rgb(200, 52, 52)" x="291.16719242902207" y="136.27760252365934" width="75.70977917981072" height="75.70977917981072" data-type="pcb_smtpad" data-pcb-layer="top"/><text x="0" y="0" dx="0" dy="0" fill="#f2eda1" font-family="Arial, sans-serif" font-size="30.28391167192429" text-anchor="middle" dominant-baseline="central" transform="matrix(1,0,0,1,400,75.70977917981075)" class="pcb-silkscreen-text pcb-silkscreen-top" data-pcb-silkscreen-text-id="silkscreen_text_1" stroke="none" data-type="pcb_silkscreen_text" data-pcb-layer="top">{REF}</text></svg>