<svg xmlns="http://www.w3.org/2000/svg" width="800" height="600"><style></style><rect class="boundary" x="0" y="0" fill="#000" width="800" height="600" data-type="pcb_background" data-pcb-layer="global"/><rect class="pcb-boundary" fill="none" stroke="#fff" stroke-width="0.3" x="53.333333333333314" y="81.33333333333331" width="693.3333333333335" height="437.3333333333334" data-type="pcb_boundary" data-pcb-layer="global"/><path class="pcb-silkscreen pcb-silkscreen-top" d="M 53.333333333333314 518.6666666666667 L 746.6666666666667 518.6666666666667 L 746.6666666666667 145.33333333333331 L 53.333333333333314 145.33333333333331 L 53.333333333333314 518.6666666666667 Z" fill="none" stroke="#f2eda1" stroke-width="5.333333333333334" stroke-linecap="round" stroke-linejoin="round" data-pcb-component-id="" data-pcb-silkscreen-path-id="" data-type="pcb_silkscreen_path" data-pcb-layer="top"/><path class="pcb-silkscreen pcb-silkscreen-top" d="M 53.333333333333314 269.77777777777777 L 746.6666666666667 269.77777777777777" fill="none" stroke="#f2eda1" stroke-width="5.333333333333334" stroke-linecap="round" stroke-linejoin="round" data-pcb-component-id="" data-pcb-silkscreen-path-id="" data-type="pcb_silkscreen_path" data-pcb-layer="top"/><path class="pcb-silkscreen pcb-silkscreen-top" d="M 284.44444444444446 269.77777777777777 L 284.44444444444446 145.33333333333331" fill="none" stroke="#f2eda1" stroke-width="5.333333333333334" stroke-linecap="round" stroke-linejoin="round" data-pcb-component-id="" data-pcb-silkscreen-path-id="" data-type="pcb_silkscreen_path" data-pcb-layer="top"/><path class="pcb-silkscreen pcb-silkscreen-top" d="M 515.5555555555555 269.77777777777777 L 515.5555555555555 145.33333333333331" fill="none" stroke="#f2eda1" stroke-width="5.333333333333334" stroke-linecap="round" stroke-linejoin="round" data-pcb-component-id="" data-pcb-silkscreen-path-id="" data-type="pcb_silkscreen_path" data-pcb-layer="top"/><text x="0" y="0" dx="0" dy="0" fill="#f2eda1" font-family="Arial, sans-serif" font-size="26.666666666666668" text-anchor="middle" dominant-baseline="central" transform="matrix(1,0,0,1,400,81.33333333333331)" class="pcb-silkscreen-text pcb-silkscreen-top" data-pcb-silkscreen-text-id="pcb_component_1" stroke="none" data-type="pcb_silkscreen_text" data-pcb-layer="top">{REF}</text><g data-type="pcb_plated_hole" data-pcb-layer="through"><rect class="pcb-hole-outer-pad" fill="rgb(200, 52, 52)" x="213.7333333333333" y="332" width="101.60000000000001" height="106.66666666666667" data-type="pcb_plated_hole" data-pcb-layer="top"/><circle class="pcb-hole-inner" fill="#FF26E2" cx="264.5333333333333" cy="385.3333333333333" r="32" data-type="pcb_plated_hole_drill" data-pcb-layer="drill"/></g><g data-type="pcb_plated_hole" data-pcb-layer="through"><path class="pcb-hole-outer" fill="rgb(200, 52, 52)" d="M50.800000000000004,-2.5333333333333314 v5.066666666666663 a50.800000000000004,50.800000000000004 0 0 1 -101.60000000000001,0 v-5.066666666666663 a50.800000000000004,50.800000000000004 0 0 1 101.60000000000001,0 z" transform="translate(400 385.3333333333333)" data-type="pcb_plated_hole" data-pcb-layer="top"/><path class="pcb-hole-inner" fill="#FF26E2" d="M-32,0 a32,32 0 0 1 64,0 a32,32 0 0 1 -64,0 z" transform="translate(400 385.3333333333333)" data-type="pcb_plated_hole_drill" data-pcb-layer="drill"/></g><g data-type="pcb_plated_hole" data-pcb-layer="through"><path class="pcb-hole-outer" fill="rgb(200, 52, 52)" d="M50.800000000000004,-2.5333333333333314 v5.066666666666663 a50.800000000000004,50.800000000000004 0 0 1 -101.60000000000001,0 v-5.066666666666663 a50.800000000000004,50.800000000000004 0 0 1 101.60000000000001,0 z" transform="translate(535.4666666666667 385.3333333333333)" data-type="pcb_plated_hole" data-pcb-layer="top"/><path class="pcb-hole-inner" fill="#FF26E2" d="M-32,0 a32,32 0 0 1 64,0 a32,32 0 0 1 -64,0 z" transform="translate(535.4666666666667 385.3333333333333)" data-type="pcb_plated_hole_drill" data-pcb-layer="drill"/></g></svg>