<svg xmlns="http://www.w3.org/2000/svg" width="800" height="600"><style></style><rect class="boundary" x="0" y="0" fill="#000" width="800" height="600" data-type="pcb_background" data-pcb-layer="global"/><rect class="pcb-boundary" fill="none" stroke="#fff" stroke-width="0.3" x="28.402757687875095" y="234.46063663522824" width="743.1944846242498" height="131.07872672954358" data-type="pcb_boundary" data-pcb-layer="global"/><path class="pcb-silkscreen pcb-silkscreen-top" d="M 28.402757687875095 362.2730462306662 L 369.23584994237626 362.2730462306662 L 369.23584994237626 262.8633943231033 L 28.402757687875095 262.8633943231033 L 28.402757687875095 362.2730462306662 Z" fill="none" stroke="#f2eda1" stroke-width="2.8402757687875098" stroke-linecap="round" stroke-linejoin="round" data-pcb-component-id="" data-pcb-silkscreen-path-id="" data-type="pcb_silkscreen_path" data-pcb-layer="top"/><text x="0" y="0" dx="0" dy="0" fill="#f2eda1" font-family="Arial, sans-serif" font-size="14.201378843937547" text-anchor="middle" dominant-baseline="central" transform="matrix(1,0,0,1,198.81930381512566,234.46063663522824)" class="pcb-silkscreen-text pcb-silkscreen-top" data-pcb-silkscreen-text-id="pcb_component_1" stroke="none" data-type="pcb_silkscreen_text" data-pcb-layer="top">{REF}</text><text x="0" y="0" dx="0" dy="0" fill="#f2eda1" font-family="Arial, sans-serif" font-size="8.520827306362529" text-anchor="middle" dominant-baseline="central" transform="matrix(1,0,0,1,293.48965867046843,365.5393633647718)" class="pcb-silkscreen-text pcb-silkscreen-top" data-pcb-silkscreen-text-id="" stroke="none" data-type="pcb_silkscreen_text" data-pcb-layer="top">Diff: 0.00%</text><rect x="14.201378843937533" y="261.44325643870957" width="369.23584994237626" height="127.81240959543793" class="pcb-courtyard-rect pcb-courtyard-top" data-pcb-courtyard-rect-id="" data-type="pcb_courtyard_rect" data-pcb-layer="top" stroke-linejoin="round" fill="none" stroke="#FF00FF" stroke-width="1.4201378843937549"/><rect x="459.166907745499" y="261.44325643870957" width="369.23584994237626" height="127.81240959543793" class="pcb-courtyard-rect pcb-courtyard-top" data-pcb-courtyard-rect-id="pcb_courtyard_rect_0" data-type="pcb_courtyard_rect" data-pcb-layer="top" stroke-linejoin="round" fill="none" stroke="#FF00FF" stroke-width="1.4201378843937549"/><g data-type="pcb_plated_hole" data-pcb-layer="through"><rect class="pcb-hole-outer-pad" fill="rgb(200, 52, 52)" x="56.37947401043206" y="287.9998348768728" width="29.25484041851135" height="49.13677080002391" rx="3.5503381783501187" ry="3.5503381783501187" data-type="pcb_plated_hole" data-pcb-layer="top"/><circle class="pcb-hole-inner" fill="#FF26E2" cx="71.00689421968774" cy="312.56822027688474" r="10.36700655607441" data-type="pcb_plated_hole_drill" data-pcb-layer="drill"/></g><g data-type="pcb_plated_hole" data-pcb-layer="through"><path class="pcb-hole-outer" fill="rgb(200, 52, 52)" d="M14.627420209255675,-9.94096519075628 v19.88193038151256 a14.627420209255675,14.627420209255675 0 0 1 -29.25484041851135,0 v-19.88193038151256 a14.627420209255675,14.627420209255675 0 0 1 29.25484041851135,0 z" transform="translate(113.61103075150038 312.56822027688474)" data-type="pcb_plated_hole" data-pcb-layer="top"/><path class="pcb-hole-inner" fill="#FF26E2" d="M-10.36700655607441,0 a10.36700655607441,10.36700655607441 0 0 1 20.73401311214882,0 a10.36700655607441,10.36700655607441 0 0 1 -20.73401311214882,0 z" transform="translate(113.61103075150038 312.56822027688474)" data-type="pcb_plated_hole_drill" data-pcb-layer="drill"/></g><g data-type="pcb_plated_hole" data-pcb-layer="through"><path class="pcb-hole-outer" fill="rgb(200, 52, 52)" d="M14.627420209255675,-9.94096519075628 v19.88193038151256 a14.627420209255675,14.627420209255675 0 0 1 -29.25484041851135,0 v-19.88193038151256 a14.627420209255675,14.627420209255675 0 0 1 29.25484041851135,0 z" transform="translate(156.215167283313 312.56822027688474)" data-type="pcb_plated_hole" data-pcb-layer="top"/><path class="pcb-hole-inner" fill="#FF26E2" d="M-10.36700655607441,0 a10.36700655607441,10.36700655607441 0 0 1 20.73401311214882,0 a10.36700655607441,10.36700655607441 0 0 1 -20.73401311214882,0 z" transform="translate(156.215167283313 312.56822027688474)" data-type="pcb_plated_hole_drill" data-pcb-layer="drill"/></g><g data-type="pcb_plated_hole" data-pcb-layer="through"><path class="pcb-hole-outer" fill="rgb(200, 52, 52)" d="M14.627420209255675,-9.94096519075628 v19.88193038151256 a14.627420209255675,14.627420209255675 0 0 1 -29.25484041851135,0 v-19.88193038151256 a14.627420209255675,14.627420209255675 0 0 1 29.25484041851135,0 z" transform="translate(198.81930381512566 312.56822027688474)" data-type="pcb_plated_hole" data-pcb-layer="top"/><path class="pcb-hole-inner" fill="#FF26E2" d="M-10.36700655607441,0 a10.36700655607441,10.36700655607441 0 0 1 20.73401311214882,0 a10.36700655607441,10.36700655607441 0 0 1 -20.73401311214882,0 z" transform="translate(198.81930381512566 312.56822027688474)" data-type="pcb_plated_hole_drill" data-pcb-layer="drill"/></g><g data-type="pcb_plated_hole" data-pcb-layer="through"><path class="pcb-hole-outer" fill="rgb(200, 52, 52)" d="M14.627420209255675,-9.94096519075628 v19.88193038151256 a14.627420209255675,14.627420209255675 0 0 1 -29.25484041851135,0 v-19.88193038151256 a14.627420209255675,14.627420209255675 0 0 1 29.25484041851135,0 z" transform="translate(241.42344034693832 312.56822027688474)" data-type="pcb_plated_hole" data-pcb-layer="top"/><path class="pcb-hole-inner" fill="#FF26E2" d="M-10.36700655607441,0 a10.36700655607441,10.36700655607441 0 0 1 20.73401311214882,0 a10.36700655607441,10.36700655607441 0 0 1 -20.73401311214882,0 z" transform="translate(241.42344034693832 312.56822027688474)" data-type="pcb_plated_hole_drill" data-pcb-layer="drill"/></g><g data-type="pcb_plated_hole" data-pcb-layer="through"><path class="pcb-hole-outer" fill="rgb(200, 52, 52)" d="M14.627420209255675,-9.94096519075628 v19.88193038151256 a14.627420209255675,14.627420209255675 0 0 1 -29.25484041851135,0 v-19.88193038151256 a14.627420209255675,14.627420209255675 0 0 1 29.25484041851135,0 z" transform="translate(284.02757687875095 312.56822027688474)" data-type="pcb_plated_hole" data-pcb-layer="top"/><path class="pcb-hole-inner" fill="#FF26E2" d="M-10.36700655607441,0 a10.36700655607441,10.36700655607441 0 0 1 20.73401311214882,0 a10.36700655607441,10.36700655607441 0 0 1 -20.73401311214882,0 z" transform="translate(284.02757687875095 312.56822027688474)" data-type="pcb_plated_hole_drill" data-pcb-layer="drill"/></g><g data-type="pcb_plated_hole" data-pcb-layer="through"><path class="pcb-hole-outer" fill="rgb(200, 52, 52)" d="M14.627420209255675,-9.94096519075628 v19.88193038151256 a14.627420209255675,14.627420209255675 0 0 1 -29.25484041851135,0 v-19.88193038151256 a14.627420209255675,14.627420209255675 0 0 1 29.25484041851135,0 z" transform="translate(326.6317134105636 312.56822027688474)" data-type="pcb_plated_hole" data-pcb-layer="top"/><path class="pcb-hole-inner" fill="#FF26E2" d="M-10.36700655607441,0 a10.36700655607441,10.36700655607441 0 0 1 20.73401311214882,0 a10.36700655607441,10.36700655607441 0 0 1 -20.73401311214882,0 z" transform="translate(326.6317134105636 312.56822027688474)" data-type="pcb_plated_hole_drill" data-pcb-layer="drill"/></g><g data-type="pcb_plated_hole" data-pcb-layer="through"><rect class="pcb-hole-outer-pad" fill="rgb(200, 52, 52)" x="501.34500291199345" y="287.9998348768728" width="29.25484041851135" height="49.13677080002391" rx="3.5503381783501187" ry="3.5503381783501187" data-type="pcb_plated_hole" data-pcb-layer="top"/><circle class="pcb-hole-inner" fill="#FF26E2" cx="515.9724231212491" cy="312.56822027688474" r="10.36700655607441" data-type="pcb_plated_hole_drill" data-pcb-layer="drill"/></g><g data-type="pcb_plated_hole" data-pcb-layer="through"><path class="pcb-hole-outer" fill="rgb(200, 52, 52)" d="M14.627420209255675,-9.94096519075628 v19.88193038151256 a14.627420209255675,14.627420209255675 0 0 1 -29.25484041851135,0 v-19.88193038151256 a14.627420209255675,14.627420209255675 0 0 1 29.25484041851135,0 z" transform="translate(558.5765596530617 312.56822027688474)" data-type="pcb_plated_hole" data-pcb-layer="top"/><path class="pcb-hole-inner" fill="#FF26E2" d="M-10.36700655607441,0 a10.36700655607441,10.36700655607441 0 0 1 20.73401311214882,0 a10.36700655607441,10.36700655607441 0 0 1 -20.73401311214882,0 z" transform="translate(558.5765596530617 312.56822027688474)" data-type="pcb_plated_hole_drill" data-pcb-layer="drill"/></g><g data-type="pcb_plated_hole" data-pcb-layer="through"><path class="pcb-hole-outer" fill="rgb(200, 52, 52)" d="M14.627420209255675,-9.94096519075628 v19.88193038151256 a14.627420209255675,14.627420209255675 0 0 1 -29.25484041851135,0 v-19.88193038151256 a14.627420209255675,14.627420209255675 0 0 1 29.25484041851135,0 z" transform="translate(601.1806961848745 312.56822027688474)" data-type="pcb_plated_hole" data-pcb-layer="top"/><path class="pcb-hole-inner" fill="#FF26E2" d="M-10.36700655607441,0 a10.36700655607441,10.36700655607441 0 0 1 20.73401311214882,0 a10.36700655607441,10.36700655607441 0 0 1 -20.73401311214882,0 z" transform="translate(601.1806961848745 312.56822027688474)" data-type="pcb_plated_hole_drill" data-pcb-layer="drill"/></g><g data-type="pcb_plated_hole" data-pcb-layer="through"><path class="pcb-hole-outer" fill="rgb(200, 52, 52)" d="M14.627420209255675,-9.94096519075628 v19.88193038151256 a14.627420209255675,14.627420209255675 0 0 1 -29.25484041851135,0 v-19.88193038151256 a14.627420209255675,14.627420209255675 0 0 1 29.25484041851135,0 z" transform="translate(643.7848327166871 312.56822027688474)" data-type="pcb_plated_hole" data-pcb-layer="top"/><path class="pcb-hole-inner" fill="#FF26E2" d="M-10.36700655607441,0 a10.36700655607441,10.36700655607441 0 0 1 20.73401311214882,0 a10.36700655607441,10.36700655607441 0 0 1 -20.73401311214882,0 z" transform="translate(643.7848327166871 312.56822027688474)" data-type="pcb_plated_hole_drill" data-pcb-layer="drill"/></g><g data-type="pcb_plated_hole" data-pcb-layer="through"><path class="pcb-hole-outer" fill="rgb(200, 52, 52)" d="M14.627420209255675,-9.94096519075628 v19.88193038151256 a14.627420209255675,14.627420209255675 0 0 1 -29.25484041851135,0 v-19.88193038151256 a14.627420209255675,14.627420209255675 0 0 1 29.25484041851135,0 z" transform="translate(686.3889692484996 312.56822027688474)" data-type="pcb_plated_hole" data-pcb-layer="top"/><path class="pcb-hole-inner" fill="#FF26E2" d="M-10.36700655607441,0 a10.36700655607441,10.36700655607441 0 0 1 20.73401311214882,0 a10.36700655607441,10.36700655607441 0 0 1 -20.73401311214882,0 z" transform="translate(686.3889692484996 312.56822027688474)" data-type="pcb_plated_hole_drill" data-pcb-layer="drill"/></g><g data-type="pcb_plated_hole" data-pcb-layer="through"><path class="pcb-hole-outer" fill="rgb(200, 52, 52)" d="M14.627420209255675,-9.94096519075628 v19.88193038151256 a14.627420209255675,14.627420209255675 0 0 1 -29.25484041851135,0 v-19.88193038151256 a14.627420209255675,14.627420209255675 0 0 1 29.25484041851135,0 z" transform="translate(728.9931057803122 312.56822027688474)" data-type="pcb_plated_hole" data-pcb-layer="top"/><path class="pcb-hole-inner" fill="#FF26E2" d="M-10.36700655607441,0 a10.36700655607441,10.36700655607441 0 0 1 20.73401311214882,0 a10.36700655607441,10.36700655607441 0 0 1 -20.73401311214882,0 z" transform="translate(728.9931057803122 312.56822027688474)" data-type="pcb_plated_hole_drill" data-pcb-layer="drill"/></g><g data-type="pcb_plated_hole" data-pcb-layer="through"><path class="pcb-hole-outer" fill="rgb(200, 52, 52)" d="M14.627420209255675,-9.94096519075628 v19.88193038151256 a14.627420209255675,14.627420209255675 0 0 1 -29.25484041851135,0 v-19.88193038151256 a14.627420209255675,14.627420209255675 0 0 1 29.25484041851135,0 z" transform="translate(771.5972423121249 312.56822027688474)" data-type="pcb_plated_hole" data-pcb-layer="top"/><path class="pcb-hole-inner" fill="#FF26E2" d="M-10.36700655607441,0 a10.36700655607441,10.36700655607441 0 0 1 20.73401311214882,0 a10.36700655607441,10.36700655607441 0 0 1 -20.73401311214882,0 z" transform="translate(771.5972423121249 312.56822027688474)" data-type="pcb_plated_hole_drill" data-pcb-layer="drill"/></g></svg>