<svg width="800" height="600" viewBox="-5 -5 10 10" xmlns="http://www.w3.org/2000/svg"><rect x="-5" y="-5" width="10" height="10" fill="#f8f9fa" stroke="#dee2e6" stroke-width="0.02"/><text x="0" y="-4.6" text-anchor="middle" font-family="Arial, sans-serif" font-size="0.15" font-weight="bold" fill="#212529">QFN-32-1EP_5x5mm_P0.5mm_EP3.1x3.1mm - Alignment Analysis (Footprinter vs KiCad)</text><g id="footprint-a" opacity="0.85"><path d="M-3,1.625 L-2.125,1.625 L-2.125,1.875 L-3,1.875 L-3,1.625 z" fill="#dc3545" stroke="#dc3545" stroke-width="0.02" fill-opacity="0.6" fill-rule="evenodd"/><path d="M-3,1.125 L-2.125,1.125 L-2.125,1.375 L-3,1.375 L-3,1.125 z" fill="#dc3545" stroke="#dc3545" stroke-width="0.02" fill-opacity="0.6" fill-rule="evenodd"/><path d="M-3,0.625 L-2.125,0.625 L-2.125,0.875 L-3,0.875 L-3,0.625 z" fill="#dc3545" stroke="#dc3545" stroke-width="0.02" fill-opacity="0.6" fill-rule="evenodd"/><path d="M-3,0.125 L-2.125,0.125 L-2.125,0.375 L-3,0.375 L-3,0.125 z" fill="#dc3545" stroke="#dc3545" stroke-width="0.02" fill-opacity="0.6" fill-rule="evenodd"/><path d="M-3,-0.375 L-2.125,-0.375 L-2.125,-0.125 L-3,-0.125 L-3,-0.375 z" fill="#dc3545" stroke="#dc3545" stroke-width="0.02" fill-opacity="0.6" fill-rule="evenodd"/><path d="M-3,-0.875 L-2.125,-0.875 L-2.125,-0.625 L-3,-0.625 L-3,-0.875 z" fill="#dc3545" stroke="#dc3545" stroke-width="0.02" fill-opacity="0.6" fill-rule="evenodd"/><path d="M-3,-1.375 L-2.125,-1.375 L-2.125,-1.125 L-3,-1.125 L-3,-1.375 z" fill="#dc3545" stroke="#dc3545" stroke-width="0.02" fill-opacity="0.6" fill-rule="evenodd"/><path d="M-3,-1.875 L-2.125,-1.875 L-2.125,-1.625 L-3,-1.625 L-3,-1.875 z" fill="#dc3545" stroke="#dc3545" stroke-width="0.02" fill-opacity="0.6" fill-rule="evenodd"/><path d="M-1.875,-3 L-1.625,-3 L-1.625,-2.125 L-1.875,-2.125 L-1.875,-3 z" fill="#dc3545" stroke="#dc3545" stroke-width="0.02" fill-opacity="0.6" fill-rule="evenodd"/><path d="M-1.375,-3 L-1.125,-3 L-1.125,-2.125 L-1.375,-2.125 L-1.375,-3 z" fill="#dc3545" stroke="#dc3545" stroke-width="0.02" fill-opacity="0.6" fill-rule="evenodd"/><path d="M-0.875,-3 L-0.625,-3 L-0.625,-2.125 L-0.875,-2.125 L-0.875,-3 z" fill="#dc3545" stroke="#dc3545" stroke-width="0.02" fill-opacity="0.6" fill-rule="evenodd"/><path d="M-0.375,-3 L-0.125,-3 L-0.125,-2.125 L-0.375,-2.125 L-0.375,-3 z" fill="#dc3545" stroke="#dc3545" stroke-width="0.02" fill-opacity="0.6" fill-rule="evenodd"/><path d="M0.125,-3 L0.375,-3 L0.375,-2.125 L0.125,-2.125 L0.125,-3 z" fill="#dc3545" stroke="#dc3545" stroke-width="0.02" fill-opacity="0.6" fill-rule="evenodd"/><path d="M0.625,-3 L0.875,-3 L0.875,-2.125 L0.625,-2.125 L0.625,-3 z" fill="#dc3545" stroke="#dc3545" stroke-width="0.02" fill-opacity="0.6" fill-rule="evenodd"/><path d="M1.125,-3 L1.375,-3 L1.375,-2.125 L1.125,-2.125 L1.125,-3 z" fill="#dc3545" stroke="#dc3545" stroke-width="0.02" fill-opacity="0.6" fill-rule="evenodd"/><path d="M1.625,-3 L1.875,-3 L1.875,-2.125 L1.625,-2.125 L1.625,-3 z" fill="#dc3545" stroke="#dc3545" stroke-width="0.02" fill-opacity="0.6" fill-rule="evenodd"/><path d="M2.125,-1.875 L3,-1.875 L3,-1.625 L2.125,-1.625 L2.125,-1.875 z" fill="#dc3545" stroke="#dc3545" stroke-width="0.02" fill-opacity="0.6" fill-rule="evenodd"/><path d="M2.125,-1.375 L3,-1.375 L3,-1.125 L2.125,-1.125 L2.125,-1.375 z" fill="#dc3545" stroke="#dc3545" stroke-width="0.02" fill-opacity="0.6" fill-rule="evenodd"/><path d="M2.125,-0.875 L3,-0.875 L3,-0.625 L2.125,-0.625 L2.125,-0.875 z" fill="#dc3545" stroke="#dc3545" stroke-width="0.02" fill-opacity="0.6" fill-rule="evenodd"/><path d="M2.125,-0.375 L3,-0.375 L3,-0.125 L2.125,-0.125 L2.125,-0.375 z" fill="#dc3545" stroke="#dc3545" stroke-width="0.02" fill-opacity="0.6" fill-rule="evenodd"/><path d="M2.125,0.125 L3,0.125 L3,0.375 L2.125,0.375 L2.125,0.125 z" fill="#dc3545" stroke="#dc3545" stroke-width="0.02" fill-opacity="0.6" fill-rule="evenodd"/><path d="M2.125,0.625 L3,0.625 L3,0.875 L2.125,0.875 L2.125,0.625 z" fill="#dc3545" stroke="#dc3545" stroke-width="0.02" fill-opacity="0.6" fill-rule="evenodd"/><path d="M2.125,1.125 L3,1.125 L3,1.375 L2.125,1.375 L2.125,1.125 z" fill="#dc3545" stroke="#dc3545" stroke-width="0.02" fill-opacity="0.6" fill-rule="evenodd"/><path d="M2.125,1.625 L3,1.625 L3,1.875 L2.125,1.875 L2.125,1.625 z" fill="#dc3545" stroke="#dc3545" stroke-width="0.02" fill-opacity="0.6" fill-rule="evenodd"/><path d="M1.625,2.125 L1.875,2.125 L1.875,3 L1.625,3 L1.625,2.125 z" fill="#dc3545" stroke="#dc3545" stroke-width="0.02" fill-opacity="0.6" fill-rule="evenodd"/><path d="M1.125,2.125 L1.375,2.125 L1.375,3 L1.125,3 L1.125,2.125 z" fill="#dc3545" stroke="#dc3545" stroke-width="0.02" fill-opacity="0.6" fill-rule="evenodd"/><path d="M0.625,2.125 L0.875,2.125 L0.875,3 L0.625,3 L0.625,2.125 z" fill="#dc3545" stroke="#dc3545" stroke-width="0.02" fill-opacity="0.6" fill-rule="evenodd"/><path d="M0.125,2.125 L0.375,2.125 L0.375,3 L0.125,3 L0.125,2.125 z" fill="#dc3545" stroke="#dc3545" stroke-width="0.02" fill-opacity="0.6" fill-rule="evenodd"/><path d="M-0.375,2.125 L-0.125,2.125 L-0.125,3 L-0.375,3 L-0.375,2.125 z" fill="#dc3545" stroke="#dc3545" stroke-width="0.02" fill-opacity="0.6" fill-rule="evenodd"/><path d="M-0.875,2.125 L-0.625,2.125 L-0.625,3 L-0.875,3 L-0.875,2.125 z" fill="#dc3545" stroke="#dc3545" stroke-width="0.02" fill-opacity="0.6" fill-rule="evenodd"/><path d="M-1.375,2.125 L-1.125,2.125 L-1.125,3 L-1.375,3 L-1.375,2.125 z" fill="#dc3545" stroke="#dc3545" stroke-width="0.02" fill-opacity="0.6" fill-rule="evenodd"/><path d="M-1.875,2.125 L-1.625,2.125 L-1.625,3 L-1.875,3 L-1.875,2.125 z" fill="#dc3545" stroke="#dc3545" stroke-width="0.02" fill-opacity="0.6" fill-rule="evenodd"/><path d="M-1.55,-1.55 L1.55,-1.55 L1.55,1.55 L-1.55,1.55 L-1.55,-1.55 z" fill="#dc3545" stroke="#dc3545" stroke-width="0.02" fill-opacity="0.6" fill-rule="evenodd"/></g><g id="footprint-b" opacity="0.85"><path d="M-2.875,1.625 L-2,1.625 L-2,1.875 L-2.875,1.875 L-2.875,1.625 z" fill="#007bff" stroke="#007bff" stroke-width="0.02" fill-opacity="0.6" fill-rule="evenodd"/><path d="M-2.875,1.125 L-2,1.125 L-2,1.375 L-2.875,1.375 L-2.875,1.125 z" fill="#007bff" stroke="#007bff" stroke-width="0.02" fill-opacity="0.6" fill-rule="evenodd"/><path d="M-2.875,0.625 L-2,0.625 L-2,0.875 L-2.875,0.875 L-2.875,0.625 z" fill="#007bff" stroke="#007bff" stroke-width="0.02" fill-opacity="0.6" fill-rule="evenodd"/><path d="M-2.875,0.125 L-2,0.125 L-2,0.375 L-2.875,0.375 L-2.875,0.125 z" fill="#007bff" stroke="#007bff" stroke-width="0.02" fill-opacity="0.6" fill-rule="evenodd"/><path d="M-2.875,-0.375 L-2,-0.375 L-2,-0.125 L-2.875,-0.125 L-2.875,-0.375 z" fill="#007bff" stroke="#007bff" stroke-width="0.02" fill-opacity="0.6" fill-rule="evenodd"/><path d="M-2.875,-0.875 L-2,-0.875 L-2,-0.625 L-2.875,-0.625 L-2.875,-0.875 z" fill="#007bff" stroke="#007bff" stroke-width="0.02" fill-opacity="0.6" fill-rule="evenodd"/><path d="M-2.875,-1.375 L-2,-1.375 L-2,-1.125 L-2.875,-1.125 L-2.875,-1.375 z" fill="#007bff" stroke="#007bff" stroke-width="0.02" fill-opacity="0.6" fill-rule="evenodd"/><path d="M-2.875,-1.875 L-2,-1.875 L-2,-1.625 L-2.875,-1.625 L-2.875,-1.875 z" fill="#007bff" stroke="#007bff" stroke-width="0.02" fill-opacity="0.6" fill-rule="evenodd"/><path d="M-1.875,-2.875 L-1.625,-2.875 L-1.625,-2 L-1.875,-2 L-1.875,-2.875 z" fill="#007bff" stroke="#007bff" stroke-width="0.02" fill-opacity="0.6" fill-rule="evenodd"/><path d="M-1.375,-2.875 L-1.125,-2.875 L-1.125,-2 L-1.375,-2 L-1.375,-2.875 z" fill="#007bff" stroke="#007bff" stroke-width="0.02" fill-opacity="0.6" fill-rule="evenodd"/><path d="M-0.875,-2.875 L-0.625,-2.875 L-0.625,-2 L-0.875,-2 L-0.875,-2.875 z" fill="#007bff" stroke="#007bff" stroke-width="0.02" fill-opacity="0.6" fill-rule="evenodd"/><path d="M-0.375,-2.875 L-0.125,-2.875 L-0.125,-2 L-0.375,-2 L-0.375,-2.875 z" fill="#007bff" stroke="#007bff" stroke-width="0.02" fill-opacity="0.6" fill-rule="evenodd"/><path d="M0.125,-2.875 L0.375,-2.875 L0.375,-2 L0.125,-2 L0.125,-2.875 z" fill="#007bff" stroke="#007bff" stroke-width="0.02" fill-opacity="0.6" fill-rule="evenodd"/><path d="M0.625,-2.875 L0.875,-2.875 L0.875,-2 L0.625,-2 L0.625,-2.875 z" fill="#007bff" stroke="#007bff" stroke-width="0.02" fill-opacity="0.6" fill-rule="evenodd"/><path d="M1.125,-2.875 L1.375,-2.875 L1.375,-2 L1.125,-2 L1.125,-2.875 z" fill="#007bff" stroke="#007bff" stroke-width="0.02" fill-opacity="0.6" fill-rule="evenodd"/><path d="M1.625,-2.875 L1.875,-2.875 L1.875,-2 L1.625,-2 L1.625,-2.875 z" fill="#007bff" stroke="#007bff" stroke-width="0.02" fill-opacity="0.6" fill-rule="evenodd"/><path d="M2,-1.875 L2.875,-1.875 L2.875,-1.625 L2,-1.625 L2,-1.875 z" fill="#007bff" stroke="#007bff" stroke-width="0.02" fill-opacity="0.6" fill-rule="evenodd"/><path d="M2,-1.375 L2.875,-1.375 L2.875,-1.125 L2,-1.125 L2,-1.375 z" fill="#007bff" stroke="#007bff" stroke-width="0.02" fill-opacity="0.6" fill-rule="evenodd"/><path d="M2,-0.875 L2.875,-0.875 L2.875,-0.625 L2,-0.625 L2,-0.875 z" fill="#007bff" stroke="#007bff" stroke-width="0.02" fill-opacity="0.6" fill-rule="evenodd"/><path d="M2,-0.375 L2.875,-0.375 L2.875,-0.125 L2,-0.125 L2,-0.375 z" fill="#007bff" stroke="#007bff" stroke-width="0.02" fill-opacity="0.6" fill-rule="evenodd"/><path d="M2,0.125 L2.875,0.125 L2.875,0.375 L2,0.375 L2,0.125 z" fill="#007bff" stroke="#007bff" stroke-width="0.02" fill-opacity="0.6" fill-rule="evenodd"/><path d="M2,0.625 L2.875,0.625 L2.875,0.875 L2,0.875 L2,0.625 z" fill="#007bff" stroke="#007bff" stroke-width="0.02" fill-opacity="0.6" fill-rule="evenodd"/><path d="M2,1.125 L2.875,1.125 L2.875,1.375 L2,1.375 L2,1.125 z" fill="#007bff" stroke="#007bff" stroke-width="0.02" fill-opacity="0.6" fill-rule="evenodd"/><path d="M2,1.625 L2.875,1.625 L2.875,1.875 L2,1.875 L2,1.625 z" fill="#007bff" stroke="#007bff" stroke-width="0.02" fill-opacity="0.6" fill-rule="evenodd"/><path d="M1.625,2 L1.875,2 L1.875,2.875 L1.625,2.875 L1.625,2 z" fill="#007bff" stroke="#007bff" stroke-width="0.02" fill-opacity="0.6" fill-rule="evenodd"/><path d="M1.125,2 L1.375,2 L1.375,2.875 L1.125,2.875 L1.125,2 z" fill="#007bff" stroke="#007bff" stroke-width="0.02" fill-opacity="0.6" fill-rule="evenodd"/><path d="M0.625,2 L0.875,2 L0.875,2.875 L0.625,2.875 L0.625,2 z" fill="#007bff" stroke="#007bff" stroke-width="0.02" fill-opacity="0.6" fill-rule="evenodd"/><path d="M0.125,2 L0.375,2 L0.375,2.875 L0.125,2.875 L0.125,2 z" fill="#007bff" stroke="#007bff" stroke-width="0.02" fill-opacity="0.6" fill-rule="evenodd"/><path d="M-0.375,2 L-0.125,2 L-0.125,2.875 L-0.375,2.875 L-0.375,2 z" fill="#007bff" stroke="#007bff" stroke-width="0.02" fill-opacity="0.6" fill-rule="evenodd"/><path d="M-0.875,2 L-0.625,2 L-0.625,2.875 L-0.875,2.875 L-0.875,2 z" fill="#007bff" stroke="#007bff" stroke-width="0.02" fill-opacity="0.6" fill-rule="evenodd"/><path d="M-1.375,2 L-1.125,2 L-1.125,2.875 L-1.375,2.875 L-1.375,2 z" fill="#007bff" stroke="#007bff" stroke-width="0.02" fill-opacity="0.6" fill-rule="evenodd"/><path d="M-1.875,2 L-1.625,2 L-1.625,2.875 L-1.875,2.875 L-1.875,2 z" fill="#007bff" stroke="#007bff" stroke-width="0.02" fill-opacity="0.6" fill-rule="evenodd"/><path d="M-1.5500000000000007,-1.55 L1.5500000000000007,-1.55 L1.5500000000000007,1.55 L-1.5500000000000007,1.55 L-1.5500000000000007,-1.55 z" fill="#007bff" stroke="#007bff" stroke-width="0.02" fill-opacity="0.6" fill-rule="evenodd"/></g><g id="alignment-guides" opacity="0.3"><line x1="0" y1="-5" x2="0" y2="5" stroke="#6c757d" stroke-width="0.02" stroke-dasharray="0.1,0.1"/><line x1="-5" y1="0" x2="5" y2="0" stroke="#6c757d" stroke-width="0.02" stroke-dasharray="0.1,0.1"/></g><g font-family="Arial, sans-serif" font-size="0.15"><rect x="-4.8" y="4" width="9.6" height="0.8" fill="white" fill-opacity="0.9" stroke="#dee2e6" stroke-width="0.01" rx="0.05"/><rect x="-4.6" y="4.1" width="0.2" height="0.2" fill="#dc3545" fill-opacity="0.5" stroke="#dc3545" stroke-width="0.01"/><text x="-4.35" y="4.199999999999999" fill="#212529" font-weight="500" dominant-baseline="middle">qfn32_thermalpad3.1x3.1mm</text><rect x="-1" y="4.1" width="0.2" height="0.2" fill="#007bff" fill-opacity="0.5" stroke="#007bff" stroke-width="0.01"/><text x="-0.75" y="4.199999999999999" fill="#212529" font-weight="500" dominant-baseline="middle">KiCad: QFN-32-1EP_5x5mm_P0.5mm_EP3.1x3.1mm</text><text x="0" y="4.7" text-anchor="middle" fill="#6c757d" font-size="0.12">Perfect alignment = complete overlap</text></g></svg>