<svg xmlns="http://www.w3.org/2000/svg" width="800" height="600"><style></style><rect class="boundary" x="0" y="0" fill="#000" width="800" height="600"/><rect class="pcb-boundary" fill="none" stroke="#fff" stroke-width="0.3" x="34.04221617131566" y="170.6395785490003" width="731.9155676573687" height="258.72084290199933"/><path class="pcb-silkscreen pcb-silkscreen-top" d="M 34.04221617131566 429.36042145099964 L 476.5910263984198 429.36042145099964 L 476.5910263984198 191.06490825178972 L 34.04221617131566 191.06490825178972 L 34.04221617131566 429.36042145099964 Z" fill="none" stroke="#f2eda1" stroke-width="3.4042216171315705" stroke-linecap="round" stroke-linejoin="round" data-pcb-component-id="" data-pcb-silkscreen-path-id=""/><path class="pcb-silkscreen pcb-silkscreen-top" d="M 34.04221617131566 270.4967459848597 L 476.5910263984198 270.4967459848597" fill="none" stroke="#f2eda1" stroke-width="3.4042216171315705" stroke-linecap="round" stroke-linejoin="round" data-pcb-component-id="" data-pcb-silkscreen-path-id=""/><path class="pcb-silkscreen pcb-silkscreen-top" d="M 181.55848624701704 270.4967459848597 L 181.55848624701704 191.06490825178972" fill="none" stroke="#f2eda1" stroke-width="3.4042216171315705" stroke-linecap="round" stroke-linejoin="round" data-pcb-component-id="" data-pcb-silkscreen-path-id=""/><path class="pcb-silkscreen pcb-silkscreen-top" d="M 329.0747563227184 270.4967459848597 L 329.0747563227184 191.06490825178972" fill="none" stroke="#f2eda1" stroke-width="3.4042216171315705" stroke-linecap="round" stroke-linejoin="round" data-pcb-component-id="" data-pcb-silkscreen-path-id=""/><text x="0" y="0" dx="0" dy="0" fill="#f2eda1" font-family="Arial, sans-serif" font-size="17.02110808565785" text-anchor="middle" dominant-baseline="central" transform="matrix(1,0,0,1,255.31662128486772,170.6395785490003)" class="pcb-silkscreen-text pcb-silkscreen-top" data-pcb-silkscreen-text-id="pcb_component_1" stroke="none">{REF}</text><text x="0" y="0" dx="0" dy="0" fill="#f2eda1" font-family="Arial, sans-serif" font-size="10.21266485139471" text-anchor="middle" dominant-baseline="central" transform="matrix(1,0,0,1,380.9363589440632,344.2548810227104)" class="pcb-silkscreen-text pcb-silkscreen-top" data-pcb-silkscreen-text-id="" stroke="none">Diff: 37.81%</text><g><rect class="pcb-hole-outer-pad" fill="rgb(200, 52, 52)" x="136.42418130654764" y="311.8296701195322" width="64.85042180635641" height="64.85042180635641"/><circle class="pcb-hole-inner" fill="#FF26E2" cx="168.84939220972583" cy="344.2548810227104" r="20.42532970278942"/></g><g><circle class="pcb-hole-outer" fill="rgb(200, 52, 52)" cx="255.31662128486772" cy="344.2548810227104" r="32.425210903178204"/><circle class="pcb-hole-inner" fill="#FF26E2" cx="255.31662128486772" cy="344.2548810227104" r="20.42532970278942"/></g><g><circle class="pcb-hole-outer" fill="rgb(200, 52, 52)" cx="341.78385036000964" cy="344.2548810227104" r="32.425210903178204"/><circle class="pcb-hole-inner" fill="#FF26E2" cx="341.78385036000964" cy="344.2548810227104" r="20.42532970278942"/></g><g><rect class="pcb-hole-outer-pad" fill="rgb(200, 52, 52)" x="560.5981147752224" y="310.21266485139466" width="64.85042180635641" height="68.0844323426314"/><circle class="pcb-hole-inner" fill="#FF26E2" cx="593.0233256784006" cy="344.2548810227104" r="20.42532970278942"/></g><g><path class="pcb-hole-outer" fill="rgb(200, 52, 52)" d="M647.0653438503642,342.63787575457286 v3.234010536274994 a32.425210903178204,32.425210903178204 0 0 0 64.85042180635641,0 v-3.234010536274994 a32.425210903178204,32.425210903178204 0 0 0 -64.85042180635641,0 z"/><path class="pcb-hole-inner" fill="#FF26E2" d="M659.065225050753,344.2548810227104 v0 a20.42532970278942,20.42532970278942 0 0 0 40.85065940557884,0 v-0 a20.42532970278942,20.42532970278942 0 0 0 -40.85065940557884,0 z"/></g><g><path class="pcb-hole-outer" fill="rgb(200, 52, 52)" d="M733.5325729255061,342.63787575457286 v3.234010536274994 a32.425210903178204,32.425210903178204 0 0 0 64.85042180635641,0 v-3.234010536274994 a32.425210903178204,32.425210903178204 0 0 0 -64.85042180635641,0 z"/><path class="pcb-hole-inner" fill="#FF26E2" d="M745.5324541258949,344.2548810227104 v0 a20.42532970278942,20.42532970278942 0 0 0 40.85065940557884,0 v-0 a20.42532970278942,20.42532970278942 0 0 0 -40.85065940557884,0 z"/></g></svg>