<svg xmlns="http://www.w3.org/2000/svg" width="800" height="600"><style></style><rect class="boundary" x="0" y="0" fill="#000" width="800" height="600" data-type="pcb_background" data-pcb-layer="global"/><rect class="pcb-boundary" fill="none" stroke="#fff" stroke-width="0.3" x="55.48949802735193" y="65.83431832457481" width="689.0210039452961" height="468.3313633508502" data-type="pcb_boundary" data-pcb-layer="global"/><path class="pcb-silkscreen pcb-silkscreen-top" d="M 305.19223915043557 192.9052688072107 L 304.1241183676118 176.60889481435802 L 300.9380318618737 160.5913562987315 L 295.68849445668445 145.12671778523415 L 288.4653271924936 130.4795835264398 L 279.39212046383176 116.90057005046918 L 268.62411935339446 104.62201804270998 L 256.3455673456353 93.85401693227271 L 242.76655386966468 84.78081020361088 L 228.1194196108703 77.55764293942002 L 212.65478109737296 72.30810553423075 L 196.63724258174648 69.12201902849262 L 180.34086858889376 68.05389824566888 L 164.0444945960411 69.12201902849262 L 148.02695608041452 72.30810553423075 L 132.56231756691722 77.55764293942002 L 117.91518330812286 84.78081020361088 L 104.33616983215224 93.85401693227271 L 92.05761782439305 104.62201804270998 L 81.28961671395578 116.90057005046916 L 72.21640998529392 130.4795835264398 L 64.99324272110307 145.12671778523415 L 59.74370531591383 160.59135629873145 L 56.5576188101757 176.60889481435802 L 55.48949802735193 192.9052688072107 L 55.48949802735193 317.75663936875253 L 305.19223915043557 317.75663936875253 L 305.19223915043557 192.9052688072107 Z" fill="none" stroke="#f2eda1" stroke-width="5.5489498027351924" stroke-linecap="round" stroke-linejoin="round" data-pcb-component-id="" data-pcb-silkscreen-path-id="" data-type="pcb_silkscreen_path" data-pcb-layer="top"/><text x="0" y="0" dx="0" dy="0" fill="#f2eda1" font-family="Arial, sans-serif" font-size="27.74474901367596" text-anchor="middle" dominant-baseline="central" transform="matrix(1,0,0,1,180.34086858889376,137.41577077985878)" class="pcb-silkscreen-text pcb-silkscreen-top" data-pcb-silkscreen-text-id="silkscreen_text_1" stroke="none" data-type="pcb_silkscreen_text" data-pcb-layer="top">{REF}</text><text x="0" y="0" dx="0" dy="0" fill="#f2eda1" font-family="Arial, sans-serif" font-size="55.48949802735192" text-anchor="middle" dominant-baseline="central" transform="matrix(1,0,0,1,600.2493639452865,65.83431832457481)" class="pcb-silkscreen-text pcb-silkscreen-top" data-pcb-silkscreen-text-id="pcb_silkscreen_text_0" stroke="none" data-type="pcb_silkscreen_text" data-pcb-layer="top">REF**</text><path class="pcb-silkscreen pcb-silkscreen-top" d="M 500.368267496053 366.0325026525487 L 700.13046039452 366.0325026525487" fill="none" stroke="#f2eda1" stroke-width="6.65873976328223" stroke-linecap="round" stroke-linejoin="round" data-pcb-component-id="pcb_component_0" data-pcb-silkscreen-path-id="pcb_silkscreen_path_0" data-type="pcb_silkscreen_path" data-pcb-layer="top"/><path class="pcb-silkscreen pcb-silkscreen-top" d="M 498.2331425909566 365.39315265627755 L 494.43079895428946 361.44349055500305 L 490.7812641524496 357.35221403346276 L 487.2898083493069 353.125231159089 L 483.9614734324516 348.768645968049 L 480.801065732383 344.2887496506221 L 477.81314908185766 339.6920114663156 L 475.00203822542073 334.98506940183574 L 472.3717925886358 330.1747205854066 L 469.9262104160126 325.267911471278 L 467.66882328609665 320.27172780859723 L 465.6028910116419 315.1933844091299 L 463.73139693223027 310.0402147286057 L 462.0570436061373 304.81966027673474 L 460.58224890766303 299.5392598711878 L 459.3091425355658 294.2066387510563 L 458.23956293763933 288.8294975655147 L 457.37505465587583 283.41560125358654 L 456.71686609604717 277.9727678310705 L 456.26594772492695 272.5088571008211 L 456.02295069775437 267.0317593026863 L 455.988225917925 261.5493837194913 L 456.1618235302626 256.0696472555234 L 456.54349284860734 250.6004630040119 L 457.13268271782295 245.1497288201096 L 457.92854230969965 239.72531591588063 L 458.9299223516057 234.3350574937621 L 460.1353767861108 228.98673743491372 L 461.54316485918673 223.68807905879126 L 463.1512536339684 218.44673397017434 L 464.95732092644573 213.27027100975522 L 466.9587586588477 208.16616532424422 L 469.15267662587473 203.14178757177538 L 471.5359066683418 198.20439327820006 L 474.10500724820463 193.36111235963926 L 476.8562684183636 188.61893882642443 L 479.7857171800657 183.98472068329502 L 482.88912322017234 179.46515004043766 L 486.16200502000356 175.06675344964674 L 489.59963632694144 170.7958824795625 L 493.197052979443 166.65870454359566 L 496.9490600756111 162.66119399378437 L 500.85023947496666 158.80912349344425 L 504.8949576225949 155.10805568106963 L 509.0773736843611 151.5633351375249 L 513.3914479814526 148.18008066812405 L 517.8309507120656 144.96317791074586 L 522.38947094764 141.91727228065707 L 527.0604258906549 139.04676226223302 L 531.8370703806129 136.35579305726225 L 536.7125066344876 133.84825059900706 L 541.6796942075673 131.52775594066583 L 546.7314601603118 129.39766002633758 L 551.8605094165408 127.46103885204286 L 557.0594352979931 125.72068902378686 L 562.3207302200509 124.17912371907946 L 567.636796533174 122.8385690577451 L 572.999957494398 121.70096088726172 L 578.402468353046 120.7679419872722 L 583.8365275346489 120.04085969730431 L 589.2942879069225 119.52076397112566 L 594.7678681115326 119.20840586054251 L 600.2493639452865 119.10423643083263" fill="none" stroke="#f2eda1" stroke-width="6.65873976328223" stroke-linecap="round" stroke-linejoin="round" data-pcb-component-id="pcb_component_0" data-pcb-silkscreen-path-id="pcb_silkscreen_path_1" data-type="pcb_silkscreen_path" data-pcb-layer="top"/><path class="pcb-silkscreen pcb-silkscreen-top" d="M 600.2493639452865 119.10423643083263 L 605.7308597790404 119.20840586054251 L 611.2044399836507 119.52076397112566 L 616.662200355924 120.04085969730428 L 622.096259537527 120.76794198727217 L 627.498770396175 121.70096088726169 L 632.8619313573989 122.83856905774508 L 638.1779976705221 124.17912371907943 L 643.4392925925798 125.72068902378683 L 648.6382184740323 127.46103885204286 L 653.7672677302611 129.39766002633755 L 658.8190336830057 131.5277559406658 L 663.7862212560855 133.84825059900706 L 668.66165750996 136.35579305726216 L 673.4383019999182 139.046762262233 L 678.109256942933 141.91727228065702 L 682.6677771785074 144.9631779107458 L 687.1072799091204 148.180080668124 L 691.421354206212 151.56333513752486 L 695.6037702679781 155.10805568106963 L 699.6484884156063 158.80912349344413 L 703.5496678149619 162.6611939937843 L 707.3016749111299 166.6587045435956 L 710.8990915636316 170.79588247956244 L 714.3367228705695 175.06675344964668 L 717.6096046704007 179.4651500404376 L 720.7130107105072 183.984720683295 L 723.6424594722093 188.61893882642437 L 726.3937206423683 193.3611123596392 L 728.9628212222314 198.2043932782 L 731.3460512646983 203.14178757177535 L 733.5399692317254 208.1661653242442 L 735.5414069641273 213.27027100975516 L 737.3474742566046 218.44673397017425 L 738.9555630313863 223.68807905879123 L 740.3633511044623 228.98673743491372 L 741.5688055389674 234.33505749376206 L 742.5701855808734 239.7253159158806 L 743.3660451727501 245.14972882010954 L 743.9552350419656 250.60046300401186 L 744.3369043603104 256.06964725552336 L 744.5105019726481 261.5493837194912 L 744.4757771928187 267.0317593026863 L 744.2327801656461 272.50885710082105 L 743.7818617945259 277.9727678310704 L 743.1236732346973 283.41560125358654 L 742.2591649529337 288.8294975655147 L 741.1895853550072 294.2066387510563 L 739.91647898291 299.5392598711878 L 738.4416842844358 304.81966027673474 L 736.7673309583429 310.04021472860563 L 734.8958368789313 315.1933844091299 L 732.8299046044764 320.2717278085973 L 730.5725174745604 325.26791147127796 L 728.1269353019372 330.17472058540653 L 725.4966896651523 334.9850694018357 L 722.6855788087154 339.6920114663156 L 719.6976621581902 344.28874965062204 L 716.5372544581214 348.7686459680489 L 713.2089195412661 353.12523115908897 L 709.7174637381236 357.3522140334627 L 706.0679289362836 361.44349055500305 L 702.2655852996164 365.39315265627755" fill="none" stroke="#f2eda1" stroke-width="6.65873976328223" stroke-linecap="round" stroke-linejoin="round" data-pcb-component-id="pcb_component_0" data-pcb-silkscreen-path-id="pcb_silkscreen_path_2" data-type="pcb_silkscreen_path" data-pcb-layer="top"/><text x="0" y="0" dx="0" dy="0" fill="#f2eda1" font-family="Arial, sans-serif" font-size="16.646849408205576" text-anchor="middle" dominant-baseline="central" transform="matrix(1,0,0,1,390.2951162670902,534.165681675425)" class="pcb-silkscreen-text pcb-silkscreen-top" data-pcb-silkscreen-text-id="diffPercentText" stroke="none" data-type="pcb_silkscreen_text" data-pcb-layer="top">Diff: 0.00%</text><polygon points="28.854538974223004,111.8906016872769 28.854538974223004,374.910822336925 331.82719820356454,374.910822336925 331.82719820356454,111.8906016872769" class="pcb-courtyard-outline pcb-courtyard-top" data-pcb-courtyard-outline-id="" data-type="pcb_courtyard_outline" data-pcb-layer="top" fill="none" stroke="#FF00FF" stroke-width="2.7744749013675962" stroke-linejoin="round"/><polygon points="448.7630343306158,111.8906016872769 448.7630343306158,374.910822336925" class="pcb-courtyard-outline pcb-courtyard-top" data-pcb-courtyard-outline-id="pcb_courtyard_outline_0" data-type="pcb_courtyard_outline" data-pcb-layer="top" fill="none" stroke="#FF00FF" stroke-width="2.7744749013675962" stroke-linejoin="round"/><polygon points="448.7630343306158,111.8906016872769 751.7356935599572,111.8906016872769" class="pcb-courtyard-outline pcb-courtyard-top" data-pcb-courtyard-outline-id="pcb_courtyard_outline_1" data-type="pcb_courtyard_outline" data-pcb-layer="top" fill="none" stroke="#FF00FF" stroke-width="2.7744749013675962" stroke-linejoin="round"/><polygon points="751.7356935599572,374.910822336925 448.7630343306158,374.910822336925" class="pcb-courtyard-outline pcb-courtyard-top" data-pcb-courtyard-outline-id="pcb_courtyard_outline_2" data-type="pcb_courtyard_outline" data-pcb-layer="top" fill="none" stroke="#FF00FF" stroke-width="2.7744749013675962" stroke-linejoin="round"/><polygon points="751.7356935599572,374.910822336925 751.7356935599572,111.8906016872769" class="pcb-courtyard-outline pcb-courtyard-top" data-pcb-courtyard-outline-id="pcb_courtyard_outline_3" data-type="pcb_courtyard_outline" data-pcb-layer="top" fill="none" stroke="#FF00FF" stroke-width="2.7744749013675962" stroke-linejoin="round"/><g data-type="pcb_plated_hole" data-pcb-layer="through"><rect class="pcb-hole-outer-pad" fill="rgb(200, 52, 52)" x="73.80103237637806" y="227.30875758416892" width="72.1363474355575" height="72.1363474355575" data-type="pcb_plated_hole" data-pcb-layer="top"/><circle class="pcb-hole-inner" fill="#FF26E2" cx="109.86920609415681" cy="263.37693130194765" r="20.80856176025697" data-type="pcb_plated_hole_drill" data-pcb-layer="drill"/></g><g data-type="pcb_plated_hole" data-pcb-layer="through"><circle class="pcb-hole-outer" fill="rgb(200, 52, 52)" cx="180.34086858889376" cy="192.9052688072107" r="36.06817371777875" data-type="pcb_plated_hole" data-pcb-layer="top"/><circle class="pcb-hole-inner" fill="#FF26E2" cx="180.34086858889376" cy="192.9052688072107" r="20.80856176025697" data-type="pcb_plated_hole_drill" data-pcb-layer="drill"/></g><g data-type="pcb_plated_hole" data-pcb-layer="through"><circle class="pcb-hole-outer" fill="rgb(200, 52, 52)" cx="250.8125310836307" cy="263.37693130194765" r="36.06817371777875" data-type="pcb_plated_hole" data-pcb-layer="top"/><circle class="pcb-hole-inner" fill="#FF26E2" cx="250.8125310836307" cy="263.37693130194765" r="20.80856176025697" data-type="pcb_plated_hole_drill" data-pcb-layer="drill"/></g><g data-type="pcb_plated_hole" data-pcb-layer="through"><rect class="pcb-hole-outer-pad" fill="rgb(200, 52, 52)" x="493.7095277327708" y="227.30875758416892" width="72.1363474355575" height="72.1363474355575" data-type="pcb_plated_hole" data-pcb-layer="top"/><circle class="pcb-hole-inner" fill="#FF26E2" cx="529.7777014505496" cy="263.37693130194765" r="20.80856176025697" data-type="pcb_plated_hole_drill" data-pcb-layer="drill"/></g><g data-type="pcb_plated_hole" data-pcb-layer="through"><circle class="pcb-hole-outer" fill="rgb(200, 52, 52)" cx="600.2493639452865" cy="192.9052688072107" r="36.06817371777875" data-type="pcb_plated_hole" data-pcb-layer="top"/><circle class="pcb-hole-inner" fill="#FF26E2" cx="600.2493639452865" cy="192.9052688072107" r="20.80856176025697" data-type="pcb_plated_hole_drill" data-pcb-layer="drill"/></g><g data-type="pcb_plated_hole" data-pcb-layer="through"><circle class="pcb-hole-outer" fill="rgb(200, 52, 52)" cx="670.7210264400235" cy="263.37693130194765" r="36.06817371777875" data-type="pcb_plated_hole" data-pcb-layer="top"/><circle class="pcb-hole-inner" fill="#FF26E2" cx="670.7210264400235" cy="263.37693130194765" r="20.80856176025697" data-type="pcb_plated_hole_drill" data-pcb-layer="drill"/></g></svg>